<svg width="76" height="75" viewBox="0 0 76 75" fill="none" xmlns="http://www.w3.org/2000/svg">
<path d="M0.584 37.16C0.584 29.8213 1.94933 23.3787 4.68 17.832C7.496 12.2853 11.2933 8.01866 16.072 5.032C20.8507 2.04533 26.184 0.551994 32.072 0.551994C37.1067 0.551994 41.5013 1.57599 45.256 3.62399C49.096 5.672 52.04 8.36 54.088 11.688V1.576H75.976V73H54.088V62.888C51.9547 66.216 48.968 68.904 45.128 70.952C41.3733 73 36.9787 74.024 31.944 74.024C26.1413 74.024 20.8507 72.5307 16.072 69.544C11.2933 66.472 7.496 62.1627 4.68 56.616C1.94933 50.984 0.584 44.4987 0.584 37.16ZM54.088 37.288C54.088 31.8267 52.552 27.5173 49.48 24.36C46.4933 21.2027 42.824 19.624 38.472 19.624C34.12 19.624 30.408 21.2027 27.336 24.36C24.3493 27.432 22.856 31.6987 22.856 37.16C22.856 42.6213 24.3493 46.9733 27.336 50.216C30.408 53.3733 34.12 54.952 38.472 54.952C42.824 54.952 46.4933 53.3733 49.48 50.216C52.552 47.0587 54.088 42.7493 54.088 37.288Z" fill="#1C1C1C"/>
</svg>
